<?xml version="1.0" standalone="no"?>
<!DOCTYPE svg PUBLIC "-//W3C//DTD SVG 1.1//EN" "http://www.w3.org/Graphics/SVG/1.1/DTD/svg11.dtd" >
<svg>
<metadata>
Created by FontForge 20090622 at Mon Mar 18 09:36:20 2019
 By deploy user
Copyright &#194;&#169; 2017 by Martin V&#195;&#161;cha. All rights reserved.
</metadata>
<defs>
<font id="RecklessTRIAL-Medium" horiz-adv-x="539" >
  <font-face 
    font-family="Reckless TRIAL Medium"
    font-weight="500"
    font-stretch="normal"
    units-per-em="1000"
    panose-1="0 0 6 0 0 0 0 0 0 0"
    ascent="788"
    descent="-212"
    x-height="505"
    cap-height="668"
    bbox="-17 -226 1011 765"
    underline-thickness="50"
    underline-position="-50"
    unicode-range="U+000D-U+00A0"
  />
<missing-glyph horiz-adv-x="650" 
d="M325 570q118 0 201.5 -83t83.5 -201t-83.5 -202t-201.5 -84t-201.5 84t-83.5 202t83.5 201t201.5 83zM237 250q17 0 29.5 28t12.5 67t-12.5 67t-29.5 28q-18 0 -31 -27.5t-13 -67.5q0 -39 13 -67t31 -28zM414 250q18 0 30.5 28t12.5 67q0 40 -12.5 67.5t-30.5 27.5
q-17 0 -29.5 -27.5t-12.5 -67.5q0 -39 12.5 -67t29.5 -28zM325 84q25 0 42 17t17 41q0 25 -17 41.5t-42 16.5t-41.5 -16.5t-16.5 -41.5q0 -24 17 -41t41 -17z" />
    <glyph glyph-name=".notdef" horiz-adv-x="650" 
d="M325 570q118 0 201.5 -83t83.5 -201t-83.5 -202t-201.5 -84t-201.5 84t-83.5 202t83.5 201t201.5 83zM237 250q17 0 29.5 28t12.5 67t-12.5 67t-29.5 28q-18 0 -31 -27.5t-13 -67.5q0 -39 13 -67t31 -28zM414 250q18 0 30.5 28t12.5 67q0 40 -12.5 67.5t-30.5 27.5
q-17 0 -29.5 -27.5t-12.5 -67.5q0 -39 12.5 -67t29.5 -28zM325 84q25 0 42 17t17 41q0 25 -17 41.5t-42 16.5t-41.5 -16.5t-16.5 -41.5q0 -24 17 -41t41 -17z" />
    <glyph glyph-name=".null" horiz-adv-x="0" 
 />
    <glyph glyph-name="nonmarkingreturn" horiz-adv-x="333" 
 />
    <glyph glyph-name="CR" unicode="&#xd;" horiz-adv-x="600" 
 />
    <glyph glyph-name="space" unicode=" " horiz-adv-x="215" 
 />
    <glyph glyph-name="comma" unicode="," horiz-adv-x="211" 
d="M101 131q36 0 59 -26t23 -67q0 -75 -42.5 -123.5t-112.5 -56.5v29q37 8 64.5 37t27.5 66q-38 -9 -65 12t-27 55q0 31 21 52.5t52 21.5z" />
    <glyph glyph-name="hyphen" unicode="-" horiz-adv-x="310" 
d="M280 321v-64h-250v64h250z" />
    <glyph glyph-name="period" unicode="." horiz-adv-x="201" 
d="M101 -14q-31 0 -52 21t-21 52q0 30 21 51t52 21q32 0 52 -20.5t20 -51.5t-21 -52t-51 -21z" />
    <glyph glyph-name="zero" unicode="0" horiz-adv-x="602" 
d="M302 682q130 0 201.5 -99t71.5 -249t-71.5 -249t-201.5 -99q-132 0 -203 99t-71 249t71 249t203 99zM286 634q-59 0 -95 -67t-36 -181q0 -87 15.5 -164t54 -132.5t92.5 -55.5q59 0 95 67t36 181q0 87 -16 164.5t-54.5 132.5t-91.5 55z" />
    <glyph glyph-name="one" unicode="1" horiz-adv-x="375" 
d="M254 112q0 -39 22 -55.5t71 -21.5v-35h-319v35q55 6 80.5 22.5t25.5 54.5v471h-106v30q130 19 191 69h35v-570z" />
    <glyph glyph-name="two" unicode="2" horiz-adv-x="514" 
d="M245 682q98 0 156 -53.5t58 -142.5q0 -45 -17.5 -85t-54.5 -78.5t-72 -67.5l-93.5 -75.5t-95.5 -78.5h206q54 0 75.5 18.5t43.5 84.5h35l-17 -204h-454v48l144 142q90 88 128.5 154.5t38.5 128.5q0 61 -32.5 95.5t-90.5 34.5q-100 0 -145 -94l-32 11q15 62 73.5 112
t145.5 50z" />
    <glyph glyph-name="three" unicode="3" horiz-adv-x="530" 
d="M253 682q83 2 139 -40t57 -111q1 -58 -34.5 -104t-98.5 -62q84 -9 135 -54.5t51 -121.5q0 -87 -69 -145t-187 -58q-80 0 -142 35t-84 99l99 55q4 -60 44 -100t94 -40q52 0 86.5 38t34.5 98q0 72 -45.5 114t-124.5 42h-34l-3 36l36 8q58 10 94.5 48t34.5 92
q-2 46 -33 72.5t-79 26.5q-45 0 -82 -23t-57 -64l-29 9q17 65 69 107t128 43z" />
    <glyph glyph-name="four" unicode="4" horiz-adv-x="587" 
d="M445 682v-450h114v-45h-114v-79q0 -35 19.5 -51t67.5 -20v-37h-315v37q111 10 111 71v79h-313v41l343 454h87zM328 562l-249 -330h249v330z" />
    <glyph glyph-name="five" unicode="5" 
d="M472 668v-111h-326l-29 -204q28 35 73.5 56t93.5 21q98 0 162.5 -58t64.5 -149q0 -111 -67.5 -174t-188.5 -63q-86 0 -145.5 36t-81.5 98l99 55q5 -61 43.5 -103t94.5 -42q54 0 90.5 41t36.5 114q0 77 -42.5 124t-115.5 47q-64 0 -132 -53l-37 16l50 349h357z" />
    <glyph glyph-name="six" unicode="6" horiz-adv-x="556" 
d="M324 430q88 0 144.5 -60t56.5 -154q0 -100 -65 -165t-169 -65q-68 0 -120.5 29t-82.5 78t-45 107t-15 123q0 166 81.5 262.5t204.5 96.5q66 0 121 -27.5t85 -77.5l-92 -61q-13 54 -46 86t-77 32q-67 0 -111 -75.5t-45 -217.5q75 89 175 89zM296 35q50 0 81 40.5t31 112.5
q0 79 -36.5 125.5t-103.5 46.5q-72 0 -119 -49q3 -73 17 -132t47.5 -101.5t82.5 -42.5z" />
    <glyph glyph-name="seven" unicode="7" horiz-adv-x="525" 
d="M503 668v-34l-80.5 -123t-66 -114.5t-58 -126t-33 -125.5t-14.5 -145h-122q0 87 22.5 165t68 148.5t83.5 117.5t100 115q9 10 14 15h-257q-41 0 -63 -20.5t-34 -72.5h-35l6 200h469z" />
    <glyph glyph-name="eight" unicode="8" 
d="M269 682q99 0 157.5 -45.5t58.5 -117.5q0 -51 -42.5 -93t-104.5 -64q79 -32 126 -80.5t47 -106.5q0 -80 -61 -134.5t-181 -54.5q-107 0 -174 51t-67 131q0 59 37.5 99.5t113.5 72.5q-124 59 -124 164q0 76 55.5 127t158.5 51zM269 635q-48 0 -75.5 -28.5t-27.5 -77.5
q0 -52 26.5 -79.5t116.5 -71.5q68 44 68 141q0 54 -29 85t-79 31zM214 324q-71 -46 -71 -156q0 -62 34 -98.5t92 -36.5q60 0 95 32.5t35 90.5q0 53 -34.5 82t-150.5 86z" />
    <glyph glyph-name="nine" unicode="9" horiz-adv-x="556" 
d="M265 682q68 0 120.5 -28.5t82.5 -77.5t45 -107.5t15 -123.5q0 -166 -81.5 -262.5t-204.5 -96.5q-66 0 -121 27.5t-85 77.5l92 61q13 -54 45.5 -85.5t77.5 -31.5q68 0 111.5 75.5t44.5 217.5q-74 -90 -175 -90q-88 0 -144.5 60.5t-56.5 154.5q0 99 64.5 164t169.5 65z
M288 309q71 0 119 48q-3 73 -17 132.5t-47.5 102t-82.5 42.5q-50 0 -81 -41t-31 -113q0 -78 36.5 -124.5t103.5 -46.5z" />
    <glyph glyph-name="A" unicode="A" horiz-adv-x="729" 
d="M645 85q12 -26 26 -35.5t53 -14.5v-35h-299v35q65 4 81.5 24.5t-2.5 59.5l-36 87h-279l-34 -81q-22 -44 -7.5 -65t85.5 -25v-35h-228v35q37 5 52.5 16t29.5 46l241 578h73zM207 250h243l-122 293z" />
    <glyph glyph-name="B" unicode="B" horiz-adv-x="657" 
d="M325 668q246 0 246 -161q0 -63 -44 -103t-110 -48q199 -22 199 -173q0 -82 -66.5 -132.5t-188.5 -50.5h-332v35q50 5 71.5 21t21.5 50v452q0 40 -21.5 56t-72.5 19v35h297zM298 624h-56v-255h67q133 0 133 138q0 52 -37 84.5t-107 32.5zM329 325h-87v-227q0 -30 20 -42
t63 -12h25q65 0 100.5 35.5t35.5 103.5q0 62 -40.5 102t-116.5 40z" />
    <glyph glyph-name="C" unicode="C" horiz-adv-x="657" 
d="M391 71q74 0 130 36.5t75 83.5l31 -13q-11 -32 -31 -63t-51 -61.5t-79 -49t-105 -18.5q-148 0 -239 94.5t-92 238.5q-1 158 91 260.5t245 102.5q105 0 173.5 -41.5t86.5 -101.5l-118 -64q-17 73 -57 116.5t-95 43.5q-93 0 -145.5 -75.5t-51.5 -213.5q1 -125 67.5 -200
t164.5 -75z" />
    <glyph glyph-name="D" unicode="D" horiz-adv-x="718" 
d="M325 668q185 0 277.5 -89t92.5 -222q0 -162 -106 -259.5t-249 -97.5h-312v35q49 5 68.5 20.5t19.5 50.5v452q0 41 -19 56.5t-69 18.5v35h297zM340 44q104 0 165 75t61 215q0 120 -69.5 205t-188.5 85h-71v-527q0 -31 22 -42t81 -11z" />
    <glyph glyph-name="E" unicode="E" horiz-adv-x="609" 
d="M547 162h35l-10 -162h-544v35q49 5 68.5 20.5t19.5 50.5v452q0 41 -19 56.5t-69 18.5v35h535l11 -161h-35q-22 69 -46.5 93t-73.5 24h-182v-259h107q32 0 48.5 21.5t19.5 67.5h35v-223h-35q-3 47 -19.5 68.5t-48.5 21.5h-107v-224q0 -32 22 -42.5t71 -10.5h98q48 0 73 25
t46 93z" />
    <glyph glyph-name="F" unicode="F" horiz-adv-x="580" 
d="M554 668l11 -161h-35q-22 69 -47 93t-74 24h-171l-1 -259h98q63 0 67 89h35v-223h-35q-4 90 -67 90h-98v-213q0 -38 26.5 -53t95.5 -20v-35h-331v35q49 5 68.5 20.5t19.5 50.5v452q0 41 -19 56.5t-69 18.5v35h526z" />
    <glyph glyph-name="G" unicode="G" horiz-adv-x="739" 
d="M732 345v-35q-50 -4 -70.5 -21t-20.5 -55v-128q-40 -51 -117 -85.5t-164 -34.5q-147 0 -238 94t-92 239q-1 158 91 260.5t244 102.5q111 0 186.5 -39t94.5 -104l-117 -64q-17 75 -63.5 117.5t-111.5 42.5q-92 0 -144 -75.5t-51 -213.5q1 -127 68.5 -212t169.5 -85
q73 0 123 26v159q0 39 -20.5 55.5t-74.5 20.5v35h307z" />
    <glyph glyph-name="H" unicode="H" horiz-adv-x="794" 
d="M766 633q-50 -3 -69.5 -19t-19.5 -56v-452q0 -34 20 -50t69 -21v-35h-299v35q50 5 69.5 21t19.5 50v214h-319v-214q0 -34 19.5 -50t69.5 -21v-35h-298v35q49 5 68.5 20.5t19.5 50.5v452q0 41 -19 56.5t-69 18.5v35h298v-35q-50 -3 -69.5 -18.5t-19.5 -56.5v-194h319v194
q0 41 -19.5 56.5t-69.5 18.5v35h299v-35z" />
    <glyph glyph-name="I" unicode="I" horiz-adv-x="353" 
d="M325 668v-35q-50 -3 -69 -18.5t-19 -56.5v-452q0 -34 19.5 -50t68.5 -21v-35h-297v35q49 5 68.5 20.5t19.5 50.5v452q0 41 -19 56.5t-69 18.5v35h297z" />
    <glyph glyph-name="J" unicode="J" horiz-adv-x="558" 
d="M531 668v-35q-50 -3 -69 -18.5t-19 -56.5v-370q0 -99 -57.5 -150.5t-162.5 -51.5q-90 0 -146 38.5t-67 103.5l127 32q2 -59 27.5 -97t64.5 -38q42 0 67.5 34.5t25.5 108.5v390q0 41 -19 56.5t-69 18.5v35h297z" />
    <glyph glyph-name="K" unicode="K" horiz-adv-x="743" 
d="M636 80q17 -24 38 -33.5t54 -11.5v-35h-186l-236 340l-64 -59v-175q0 -34 20.5 -50t71.5 -21v-35h-306v35q51 5 72 21t21 50v452q0 40 -20.5 56t-72.5 19v35h306v-35q-54 -3 -73 -19.5t-19 -55.5v-218l255 234q30 25 19.5 41.5t-67.5 17.5v35h236v-35q-30 -1 -49.5 -7.5
t-29 -13.5t-29.5 -25l-182 -166z" />
    <glyph glyph-name="L" unicode="L" horiz-adv-x="579" 
d="M563 162l-10 -162h-525v35q49 5 68.5 20.5t19.5 50.5v452q0 41 -19 56.5t-69 18.5v35h297v-35q-50 -3 -69 -18.5t-19 -56.5v-461q0 -32 22 -42.5t71 -10.5h74q48 0 73.5 25t50.5 93h35z" />
    <glyph glyph-name="M" unicode="M" horiz-adv-x="940" 
d="M912 668v-35q-50 -2 -70 -19t-20 -56v-452q0 -31 20.5 -48.5t69.5 -22.5v-35h-301v35q49 6 69.5 23t20.5 48v429l-249 -534h-51l-239 534v-429q0 -31 21 -48.5t70 -22.5v-35h-224v35q48 6 68.5 23t20.5 48v452q0 39 -20 56t-70 19v35h208l233 -524l244 524h199z" />
    <glyph glyph-name="N" unicode="N" horiz-adv-x="715" 
d="M687 668v-35q-44 -3 -62.5 -19t-18.5 -56v-558h-60l-377 502v-396q0 -34 21.5 -50t71.5 -21v-35h-227v36q43 5 62 20.5t19 49.5v452q0 41 -19 56.5t-69 18.5v35h179l346 -471v361q0 40 -21 56t-72 19v35h227z" />
    <glyph glyph-name="O" unicode="O" horiz-adv-x="753" 
d="M379 682q159 0 251.5 -97t92.5 -236q0 -161 -101 -262t-248 -101q-159 0 -251.5 97t-92.5 237q0 161 101 261.5t248 100.5zM358 635q-97 -1 -149 -81.5t-50 -205.5q1 -126 62.5 -220.5t173.5 -93.5q96 1 148.5 81.5t50.5 204.5q-1 81 -26 151t-79.5 117t-130.5 47z" />
    <glyph glyph-name="P" unicode="P" horiz-adv-x="607" 
d="M329 291h-87v-183q0 -38 23 -53.5t87 -19.5v-35h-324v35q53 5 73 21.5t20 49.5v452q0 39 -19.5 55.5t-73.5 19.5v35h301q124 0 193.5 -48t69.5 -141t-69.5 -140.5t-193.5 -47.5zM305 624h-63v-289h63q77 0 117.5 38.5t40.5 105.5q0 70 -39.5 107.5t-118.5 37.5z" />
    <glyph glyph-name="Q" unicode="Q" horiz-adv-x="760" 
d="M727 349q0 -161 -101 -262t-248 -101q-70 0 -133 22q81 -64 168 -92.5t162 -18.5l-25 -110q-104 2 -177 55t-165 182q-84 42 -129.5 121t-45.5 175q0 161 101 261.5t249 100.5q106 0 186 -47t119 -121.5t39 -164.5zM162 348q1 -80 25.5 -149.5t79.5 -117.5t131 -47
q97 1 149 81.5t50 204.5q-1 81 -25.5 151t-79.5 117t-130 47q-97 -1 -149.5 -81t-50.5 -206z" />
    <glyph glyph-name="R" unicode="R" horiz-adv-x="709" 
d="M606 80q27 -40 92 -45v-35h-185l-200 291h-71v-185q0 -33 20.5 -49.5t72.5 -21.5v-35h-307v35q53 5 73 21.5t20 49.5v452q0 39 -19.5 55.5t-73.5 19.5v35h294q124 0 194 -48t70 -141q0 -132 -140 -172zM242 335h56q78 0 118.5 38.5t40.5 105.5q0 69 -40 107t-119 38h-56
v-289z" />
    <glyph glyph-name="S" unicode="S" horiz-adv-x="563" 
d="M129 200q57 -167 167 -167q56 0 90 31.5t34 83.5q0 35 -20 61.5t-52.5 43.5t-71.5 32t-77.5 32.5t-71 39.5t-52.5 58.5t-20 84.5q0 81 60.5 131.5t169.5 50.5q82 0 145 -30.5t87 -72.5l-100 -94q-26 78 -61 114t-84 36t-80 -26.5t-31 -71.5t38.5 -76t93.5 -52t109.5 -45
t93 -68.5t38.5 -108.5q0 -91 -68 -146t-174 -55q-163 0 -265 104z" />
    <glyph glyph-name="T" unicode="T" horiz-adv-x="638" 
d="M612 668l11 -161h-37q-21 70 -45 93.5t-73 23.5h-88v-518q0 -35 19.5 -50.5t68.5 -20.5v-35h-297v35q49 5 68.5 21t19.5 50v518h-88q-50 0 -74 -23.5t-45 -93.5h-37l11 161h586z" />
    <glyph glyph-name="U" unicode="U" horiz-adv-x="752" 
d="M726 668v-35q-49 -3 -68.5 -19t-19.5 -56v-318q0 -120 -65 -187t-182 -67q-134 0 -205.5 64t-71.5 183v325q0 41 -19 56.5t-69 18.5v35h298v-35q-50 -3 -69 -18.5t-19 -56.5v-310q0 -96 45 -154t132 -58q83 0 127.5 57t44.5 160v305q0 41 -19 56.5t-69 18.5v35h229z" />
    <glyph glyph-name="V" unicode="V" horiz-adv-x="724" 
d="M716 668v-35q-37 -5 -52.5 -16t-29.5 -45l-235 -579h-74l-239 590q-11 26 -25 36t-53 14v35h299v-35q-65 -4 -81.5 -24.5t2.5 -59.5l171 -423l167 417q22 45 7.5 65.5t-84.5 24.5v35h227z" />
    <glyph glyph-name="W" unicode="W" horiz-adv-x="1019" 
d="M794 668h217v-35q-36 -4 -50.5 -14.5t-26.5 -44.5l-193 -581h-75l-155 466l-156 -466h-76l-196 592q-9 27 -22.5 35.5t-52.5 12.5v35h288v-35q-61 -4 -75.5 -22.5t0.5 -58.5l130 -421l133 407l-15 47q-8 26 -21.5 35t-52.5 13v35h288v-35q-61 -4 -75.5 -22.5t0.5 -58.5
l130 -421l134 415q18 46 4 64.5t-82 22.5v35z" />
    <glyph glyph-name="X" unicode="X" horiz-adv-x="684" 
d="M592 83q17 -25 35 -35t50 -13v-35h-279v35q38 2 50 13t-4 37l-138 200l-115 -162q-36 -45 -31.5 -66t60.5 -22v-35h-212v35q32 2 52.5 12.5t39.5 36.5l176 245l-176 256q-17 25 -35 35.5t-49 12.5v35h279v-35q-78 -3 -47 -49l116 -169l94 131q35 46 28 66t-65 21v35h218
v-35q-33 -2 -52 -11.5t-39 -36.5l-154 -214z" />
    <glyph glyph-name="Y" unicode="Y" horiz-adv-x="646" 
d="M638 668v-35q-24 -1 -35 -9t-26 -34l-193 -332v-152q0 -35 20 -51t68 -20v-35h-297v35q48 4 68 20t20 51v152l-193 333q-14 24 -25 32.5t-37 9.5v35h270v-35q-58 -1 -73 -17.5t8 -55.5l142 -251l145 251q24 37 11 54.5t-73 18.5v35h200z" />
    <glyph glyph-name="Z" unicode="Z" horiz-adv-x="598" 
d="M575 162l-10 -162h-544v35l408 589h-230q-48 0 -72.5 -25t-45.5 -92h-35l10 161h519v-35l-409 -589h257q48 0 73 25t46 93h33z" />
    <glyph glyph-name="a" unicode="a" horiz-adv-x="535" 
d="M512 66h11v-35l-163 -45h-25v103q-52 -103 -161 -103q-60 0 -99 36.5t-39 98.5q0 72 60.5 110.5t179.5 64.5l59 13v17q0 69 -28 109.5t-76 40.5q-40 0 -63 -23t-23 -59q0 -24 16 -56l-102 -35q-18 33 -18 63q0 63 62 108t151 45q93 0 144.5 -51.5t51.5 -141.5v-193
q0 -37 12.5 -52t49.5 -15zM231 58q70 0 104 73v136l-49 -12q-71 -16 -100.5 -44t-29.5 -75q0 -34 22 -56t53 -22z" />
    <glyph glyph-name="b" unicode="b" horiz-adv-x="601" 
d="M355 519q98 0 155.5 -71.5t57.5 -177.5q0 -130 -72 -207t-178 -77q-88 0 -135 60l-40 -60h-48v589q0 29 -11.5 43t-42.5 18l-13 2v30l157 41h25v-270q24 34 62 57t83 23zM325 33q53 0 88 55t35 144t-33.5 153t-98.5 64t-106 -41v-219q0 -67 28 -111.5t87 -44.5z" />
    <glyph glyph-name="c" unicode="c" horiz-adv-x="504" 
d="M279 519q82 0 133 -41t56 -95l-102 -50q-8 63 -33.5 102t-68.5 39q-54 0 -87 -53.5t-33 -139.5q0 -97 43.5 -154.5t121.5 -57.5q46 0 84.5 26t57.5 65l27 -12q-24 -77 -80 -119.5t-131 -42.5q-110 0 -172 73.5t-62 185.5q0 115 66.5 194.5t179.5 79.5z" />
    <glyph glyph-name="d" unicode="d" horiz-adv-x="599" 
d="M550 66h21v-35l-161 -45h-25v93q-21 -41 -59.5 -67t-85.5 -26q-98 0 -155.5 72t-57.5 178q0 129 72 206t178 77q66 0 108 -32v88q0 28 -12 42.5t-42 18.5l-13 2v30l157 41h25v-581q0 -34 11 -48t39 -14zM385 119v196q0 70 -29 113.5t-86 43.5q-53 0 -88 -54.5t-35 -144.5
q0 -89 33.5 -153t98.5 -64q33 0 63.5 18.5t42.5 44.5z" />
    <glyph glyph-name="e" unicode="e" horiz-adv-x="518" 
d="M280 519q100 0 151.5 -68.5t52.5 -178.5h-339q4 -92 48 -145.5t114 -53.5q47 0 85.5 23.5t61.5 60.5l27 -12q-21 -69 -77.5 -114t-137.5 -45q-108 0 -170.5 74.5t-62.5 179.5q0 128 68 203.5t179 75.5zM264 474q-52 0 -82 -41.5t-36 -114.5h220q-8 156 -102 156z" />
    <glyph glyph-name="f" unicode="f" horiz-adv-x="427" 
d="M299 722q-80 0 -80 -139v-78h144v-42h-144v-365q0 -32 20.5 -44t70.5 -19v-35h-273v35q36 8 51.5 20t15.5 41v367h-84v42h84v48q0 105 59.5 158.5t148.5 53.5q54 0 97.5 -19t61.5 -49l-86 -73q-11 42 -34 70t-52 28z" />
    <glyph glyph-name="g" unicode="g" horiz-adv-x="578" 
d="M458 519h48v-517q0 -104 -61 -162.5t-184 -58.5q-83 0 -137 24.5t-76 57.5l116 61q36 -96 119 -96q108 0 108 149v90q-23 -34 -61 -57.5t-84 -23.5q-98 0 -155.5 72t-57.5 178q0 129 72 206t178 77q91 0 136 -60zM285 56q66 0 106 42v219q0 67 -28 111t-87 44
q-53 0 -88 -54.5t-35 -144.5q0 -89 33.5 -153t98.5 -64z" />
    <glyph glyph-name="h" unicode="h" horiz-adv-x="615" 
d="M528 96q0 -29 15.5 -41t51.5 -20v-35h-243v35q32 7 46.5 19.5t14.5 41.5v242q0 101 -87 101q-57 0 -116 -63v-280q0 -29 15.5 -41t51.5 -20v-35h-249v35q36 7 51.5 19.5t15.5 41.5v482q0 26 -11.5 39.5t-38.5 17.5l-17 3v30l157 41h25v-287q80 97 165 97q70 0 111.5 -44
t41.5 -125v-254z" />
    <glyph glyph-name="i" unicode="i" horiz-adv-x="309" 
d="M154 585q-34 0 -55.5 21t-21.5 53t21.5 53t55.5 21q33 0 54.5 -21t21.5 -53t-21.5 -53t-54.5 -21zM210 96q0 -29 15.5 -41t51.5 -20v-35h-249v35q36 7 51.5 19.5t15.5 41.5v289q0 28 -12 42.5t-43 18.5l-12 2v30l157 41h25v-423z" />
    <glyph glyph-name="j" unicode="j" horiz-adv-x="268" 
d="M133 585q-34 0 -55.5 21t-21.5 53t21.5 53t55.5 21q33 0 54.5 -21t21.5 -53t-21.5 -53t-54.5 -21zM14 478l157 41h25v-440q0 -215 -198 -283l-15 32q37 25 56 48.5t30.5 69t11.5 118.5v321q0 28 -12 42.5t-43 18.5l-12 2v30z" />
    <glyph glyph-name="k" unicode="k" horiz-adv-x="610" 
d="M511 84q18 -25 34.5 -36t49.5 -13v-35h-173l-162 253l-49 -43v-114q0 -28 15 -40.5t52 -20.5v-35h-250v35q36 7 52 20t16 41v479q0 26 -11 41t-45 20l-12 2v30l158 41h25v-442l166 144l20 18.5t12 15.5t1 13.5t-17.5 8t-38.5 3.5v35h205v-35q-30 0 -47 -6.5t-38 -24.5
l-127 -111z" />
    <glyph glyph-name="l" unicode="l" horiz-adv-x="297" 
d="M210 709v-613q0 -29 15.5 -41t51.5 -20v-35h-249v35q36 7 51.5 19.5t15.5 41.5v479q0 28 -12 42.5t-43 18.5l-12 2v30l157 41h25z" />
    <glyph glyph-name="m" unicode="m" horiz-adv-x="941" 
d="M846 96q0 -29 15.5 -41t51.5 -20v-35h-243v35q32 7 46.5 19.5t14.5 41.5v242q0 101 -87 101q-57 0 -117 -64q1 -8 1 -25v-254q0 -29 15.5 -41t51.5 -20v-35h-243v35q32 7 46.5 19.5t14.5 41.5v242q0 101 -87 101q-57 0 -116 -63v-280q0 -29 15.5 -41t51.5 -20v-35h-249
v35q36 7 51.5 19.5t15.5 41.5v289q0 28 -12 42.5t-43 18.5l-12 2v30l157 41h25v-97q80 97 165 97q55 0 93 -27.5t52 -79.5q83 107 173 107q70 0 111.5 -44t41.5 -125v-254z" />
    <glyph glyph-name="n" unicode="n" horiz-adv-x="623" 
d="M528 96q0 -29 15.5 -41t51.5 -20v-35h-243v35q32 7 46.5 19.5t14.5 41.5v242q0 101 -87 101q-57 0 -116 -63v-280q0 -29 15.5 -41t51.5 -20v-35h-249v35q36 7 51.5 19.5t15.5 41.5v289q0 28 -12 42.5t-43 18.5l-12 2v30l157 41h25v-97q80 97 165 97q70 0 111.5 -44
t41.5 -125v-254z" />
    <glyph glyph-name="o" unicode="o" horiz-adv-x="562" 
d="M278 -14q-111 0 -178 72t-67 184q0 122 72 199.5t179 77.5q111 0 178 -72.5t67 -184.5q0 -121 -72.5 -198.5t-178.5 -77.5zM294 33q54 0 85.5 52t31.5 136q0 99 -37.5 175t-104.5 76q-54 0 -85.5 -51.5t-31.5 -134.5q0 -63 15 -119.5t48.5 -95t78.5 -38.5z" />
    <glyph glyph-name="p" unicode="p" horiz-adv-x="601" 
d="M355 519q98 0 155.5 -71.5t57.5 -177.5q0 -130 -72 -207t-178 -77q-65 0 -108 33v-121q0 -30 18 -42.5t59 -18.5v-35h-259v35q36 7 51.5 19t15.5 42v487q0 29 -11.5 43t-42.5 18l-13 2v30l157 41h25v-82q22 35 60.5 58.5t84.5 23.5zM325 33q53 0 88 55t35 144t-33.5 153
t-98.5 64q-61 0 -106 -40v-219q0 -70 29 -113.5t86 -43.5z" />
    <glyph glyph-name="q" unicode="q" horiz-adv-x="586" 
d="M506 -102q0 -30 15.5 -42t51.5 -19v-35h-259v35q41 6 59 18.5t18 42.5v170q-22 -35 -60.5 -58.5t-84.5 -23.5q-98 0 -155.5 72t-57.5 178q0 129 72 206t178 77q90 0 135 -60l40 60h48v-621zM285 56q62 0 106 41v220q0 67 -28 111t-87 44q-53 0 -88 -54.5t-35 -144.5
q0 -89 33.5 -153t98.5 -64z" />
    <glyph glyph-name="r" unicode="r" horiz-adv-x="429" 
d="M359 521q33 3 57 -4l-14 -123q-34 29 -79 26q-37 -2 -66.5 -26t-46.5 -65v-230q0 -30 19.5 -43t72.5 -21v-35h-274v35q40 8 53.5 21t13.5 43v286q0 28 -12 42.5t-43 18.5l-12 2v30l157 41h25v-151q24 75 62.5 112.5t86.5 40.5z" />
    <glyph glyph-name="s" unicode="s" horiz-adv-x="467" 
d="M239 519q76 0 123.5 -22.5t68.5 -49.5l-80 -81q-43 111 -123 111q-39 0 -65 -19t-26 -51q0 -33 30.5 -54t74.5 -34t88 -30t74.5 -53.5t30.5 -92.5q0 -65 -53.5 -111t-142.5 -46q-68 0 -128 28t-86 65l88 74q53 -125 136 -125q40 0 67.5 22.5t26.5 59.5q0 35 -30.5 57.5
t-74 36t-87 29.5t-74 49.5t-30.5 84.5q-1 70 51 111t141 41z" />
    <glyph glyph-name="t" unicode="t" horiz-adv-x="389" 
d="M364 73l11 -22q-26 -21 -37.5 -29.5t-42.5 -22t-59 -13.5q-68 0 -104.5 38.5t-36.5 113.5v325h-83v42h83v99l116 47v-146h151v-42h-151v-322q0 -91 81 -91q33 0 72 23z" />
    <glyph glyph-name="u" unicode="u" horiz-adv-x="619" 
d="M575 66h20v-35l-161 -45h-25v96q-79 -97 -164 -97q-71 0 -112.5 44.5t-41.5 125.5v230q0 28 -12 42.5t-43 18.5l-12 2v30l157 41h25v-352q0 -49 23 -75t64 -26q55 0 116 62v257q0 28 -12 42.5t-43 18.5l-12 2v30l157 41h25v-391q0 -33 11.5 -47.5t39.5 -14.5z" />
    <glyph glyph-name="v" unicode="v" horiz-adv-x="574" 
d="M567 505v-35q-47 -8 -65 -48l-194 -436h-35l-200 437q-10 21 -24 31.5t-42 16.5v34h258v-35q-46 -5 -58.5 -18.5t0.5 -42.5l123 -276l120 276q14 30 0 43t-63 18v35h180z" />
    <glyph glyph-name="w" unicode="w" horiz-adv-x="858" 
d="M682 505h170v-35q-25 -5 -38 -15.5t-23 -32.5l-177 -436h-37l-147 351l-142 -351h-36l-183 437q-9 20 -23 31t-39 17v34h247v-35q-42 -7 -52.5 -19.5t0.5 -41.5l106 -274l99 257l-13 31q-9 20 -22 31t-40 17v34h248v-35q-42 -7 -53 -19.5t0 -41.5l107 -273l106 273
q11 30 -1 42.5t-57 18.5v35z" />
    <glyph glyph-name="x" unicode="x" horiz-adv-x="569" 
d="M487 75q15 -19 29.5 -28t41.5 -12v-35h-248v35q39 4 46.5 14.5t-10.5 33.5l-93 119l-86 -110q-19 -22 -10.5 -35t54.5 -22v-35h-193v35q42 12 66 39l139 168l-146 187q-16 20 -30 29t-41 12v35h249v-35q-39 -3 -47 -15t10 -34l82 -105l76 98q19 24 9.5 37.5t-53.5 18.5
v35h193v-35q-41 -8 -66 -39l-129 -155z" />
    <glyph glyph-name="y" unicode="y" horiz-adv-x="570" 
d="M102 -179l156 195l-193 418q-7 16 -19 23t-41 13v35h255v-35q-51 -6 -65 -17.5t-2 -39.5l129 -289l128 289q12 27 -2.5 38.5t-64.5 18.5v35h182v-35q-28 -5 -40 -13t-19 -24l-282 -631h-122v19z" />
    <glyph glyph-name="z" unicode="z" horiz-adv-x="508" 
d="M470 505v-37l-299 -425h156q34 0 57 28.5t41 102.5h35l-11 -174h-418v39l300 424h-143q-34 0 -56 -24t-42 -91h-35l6 157h409z" />
    <glyph glyph-name="uni00A0" unicode="&#xa0;" horiz-adv-x="215" 
 />
    <glyph glyph-name="G.ss11" horiz-adv-x="691" 
d="M641 345v-239q-40 -51 -117 -85.5t-164 -34.5q-147 0 -238 94t-92 239q-1 158 91 260.5t244 102.5q111 0 186.5 -39t94.5 -104l-117 -64q-17 75 -63.5 117.5t-111.5 42.5q-92 0 -144 -75.5t-51 -213.5q1 -127 68.5 -212t169.5 -85q73 0 123 26v159q0 39 -20.5 55.5
t-74.5 20.5v35h216z" />
    <glyph glyph-name="M.titl" horiz-adv-x="952" 
d="M791 668l55 -563q3 -33 24 -49t67 -21v-35h-296v35q48 6 67 23t16 49l-41 428l-240 -535h-49l-207 535l-43 -429q-4 -35 18.5 -50t78.5 -21v-35h-226v35q45 5 64 22.5t21 48.5l56 562h108l199 -514l232 514h96z" />
    <glyph glyph-name="a.ss01" horiz-adv-x="594" 
d="M550 66h21v-35l-161 -45h-25v82q-22 -35 -60.5 -58.5t-84.5 -23.5q-98 0 -155.5 72t-57.5 178q0 129 72 206t178 77q90 0 135 -60l40 60h48v-391q0 -34 11 -48t39 -14zM279 56q62 0 106 41v220q0 67 -28 111t-87 44q-53 0 -88 -54.5t-35 -144.5q0 -89 33.5 -153t98.5 -64
z" />
    <glyph glyph-name="a.ss02" 
d="M494 66h21v-35l-161 -45h-25v103q-52 -103 -161 -103q-60 0 -99 36.5t-39 98.5q0 72 60.5 110.5t179.5 64.5l59 13v146h-280v50h375q8 0 14 -6t6 -14v-357q0 -33 11.5 -47.5t38.5 -14.5zM225 58q70 0 104 73v136l-49 -12q-71 -16 -100.5 -44t-29.5 -75q0 -34 22 -56
t53 -22z" />
    <glyph glyph-name="g.ss03" horiz-adv-x="592" 
d="M365 96q84 -2 141.5 -40.5t57.5 -105.5q0 -75 -87 -125.5t-216 -50.5q-113 0 -178 37t-65 99q0 69 103 113q-51 25 -51 77q0 30 19 59t53 49q-84 49 -84 139q0 75 60.5 123.5t160.5 48.5q50 0 94 -14h178v-50h-95q43 -45 43 -108q0 -76 -59.5 -124t-160.5 -48
q-58 0 -109 20q-24 -19 -24 -47q0 -19 14 -32.5t39 -14.5zM271 481q-40 0 -66.5 -35t-26.5 -89q0 -63 31 -104t78 -41q40 0 66.5 35.5t26.5 89.5q0 63 -31 103.5t-78 40.5zM279 -179q76 0 125 26.5t49 69.5q0 36 -29 61t-83 26l-148 5q-10 0 -26 2q-32 -36 -32 -81
q0 -50 40.5 -79.5t103.5 -29.5z" />
    <glyph glyph-name="g.ss04" horiz-adv-x="646" 
d="M569 505v-50h-94q43 -45 43 -108q0 -76 -60 -124t-160 -48q-66 0 -122 25v-100l178 -1q93 0 152.5 -35t59.5 -103q0 -76 -83.5 -128t-211.5 -52q-110 0 -174 35t-64 89q0 73 93 114v214q-49 47 -49 114q0 75 60.5 123.5t160.5 48.5q50 0 94 -14h177zM305 212
q40 0 66.5 35.5t26.5 89.5q0 63 -30.5 103.5t-77.5 40.5q-40 0 -66.5 -35t-26.5 -89q0 -63 30.5 -104t77.5 -41zM453 -72q0 78 -143 80h-131q-29 -35 -29 -74q0 -49 42.5 -77.5t104.5 -28.5q68 0 112 28.5t44 71.5z" />
    <glyph glyph-name="g.ss05" horiz-adv-x="578" 
d="M458 519h48v-697q0 -8 -6 -14t-14 -6h-399v50h304v216q-22 -35 -60.5 -58.5t-84.5 -23.5q-98 0 -155.5 72t-57.5 178q0 129 72 206t178 77q90 0 135 -60zM285 56q62 0 106 41v220q0 67 -28 111t-87 44q-53 0 -88 -54.5t-35 -144.5q0 -89 33.5 -153t98.5 -64z" />
    <glyph glyph-name="r.ss06" horiz-adv-x="408" 
d="M211 98q0 -30 19.5 -42t71.5 -21v-35h-274v35q36 8 52 20t16 41v389q0 8 6 14t14 6h274v-50h-179v-357z" />
    <glyph glyph-name="t.ss07" horiz-adv-x="375" 
d="M245 505h112v-50h-112v-455h-115v455h-112v50h112v99l96 47h19v-146z" />
    <glyph glyph-name="y.ss08" horiz-adv-x="570" 
d="M565 505v-35q-28 -5 -40 -13t-19 -24l-223 -510q-58 -135 -153 -135q-45 0 -100 23l29 93q44 -20 84 -20q42 0 63 16t38 55l17 40l-196 439q-7 16 -19 23t-41 13v35h253v-35q-52 -6 -65.5 -17.5t-1.5 -39.5l127 -287l125 287q12 27 -2 38.5t-65 18.5v35h189z" />
    <glyph glyph-name="y.ss09" horiz-adv-x="597" 
d="M499 519h25v-517q0 -104 -60 -162.5t-184 -58.5q-83 0 -136.5 24.5t-76.5 57.5l116 61q36 -96 119 -96q107 0 107 149v105q-79 -97 -164 -97q-71 0 -112.5 44.5t-41.5 125.5v230q0 28 -12 42.5t-43 18.5l-12 2v30l157 41h25v-352q0 -49 23 -75t64 -26q55 0 116 62v257
q0 28 -12 42.5t-43 18.5l-12 2v30z" />
    <glyph glyph-name="y.ss10" horiz-adv-x="597" 
d="M499 519h25v-697q0 -8 -6 -14t-14 -6h-399v50h304v230q-79 -97 -164 -97q-71 0 -112.5 44.5t-41.5 125.5v230q0 28 -12 42.5t-43 18.5l-12 2v30l157 41h25v-352q0 -49 23 -75t64 -26q55 0 116 62v257q0 28 -12 42.5t-43 18.5l-12 2v30z" />
    </font>
</defs>
</svg>
